<svg width="61" height="55" viewBox="0 0 61 55" fill="none" xmlns="http://www.w3.org/2000/svg">
<path d="M60.0875 49.45L48.3 37.6625C49.45 34.7875 48.875 31.05 46.2875 28.75C43.7 26.1625 39.9625 25.5875 36.8 27.025L42.2625 32.4875L38.2375 36.5125L32.4875 30.7625C31.05 33.925 31.625 37.6625 34.2125 40.5375C36.8 43.125 40.25 43.7 43.125 42.55L54.9125 54.3375C55.4875 54.9125 56.35 54.9125 56.6375 54.3375L59.5125 51.4625C60.375 50.6 60.375 49.7375 60.0875 49.45ZM31.625 46H0V40.25C0 33.925 10.35 28.75 23 28.75C24.4375 28.75 25.875 28.75 27.025 29.0375C26.1625 30.7625 25.875 32.4875 25.875 34.5C25.875 39.1 28.175 43.4125 31.625 46ZM23 0C16.675 0 11.5 5.175 11.5 11.5C11.5 17.825 16.675 23 23 23C29.325 23 34.5 17.825 34.5 11.5C34.5 5.175 29.325 0 23 0Z" fill="#0067B0"/>
</svg>
