<svg width="67" height="47" viewBox="0 0 67 47" fill="none" xmlns="http://www.w3.org/2000/svg">
<path d="M54.4375 0C52.1561 2.18226 49.443 3.86261 46.4729 4.93288C43.3406 5.48563 34.6725 1.46562 30.4013 5.56938C29.6894 6.28125 28.81 6.99313 27.8888 7.705C25.8787 6.82563 22.78 5.48563 20.5188 4.1875C18.2575 2.88938 12.5625 0 12.5625 0L0 14.6563C0 14.6563 3.09875 18.8438 5.025 21.6075C6.28125 23.45 7.83062 26.2556 8.83562 28.14L7.41187 29.815C7.07335 30.4929 6.95203 31.2587 7.06443 32.008C7.17683 32.7573 7.51749 33.4538 8.04 34.0025C8.64477 34.4585 9.38194 34.7044 10.1393 34.7029C10.8967 34.7014 11.6329 34.4525 12.2359 33.9941C12.012 34.2563 11.8426 34.5603 11.7375 34.8887C11.6323 35.217 11.5937 35.5629 11.6237 35.9063C11.6537 36.2497 11.7518 36.5837 11.9123 36.8888C12.0727 37.1939 12.2924 37.464 12.5583 37.6833C13.1986 38.0543 13.9258 38.2489 14.6658 38.2474C15.4057 38.246 16.1321 38.0484 16.7709 37.6749C16.2925 38.2713 16.0307 39.0124 16.0284 39.777C16.0261 40.5415 16.2835 41.2842 16.7584 41.8834C17.3756 42.0977 18.034 42.1662 18.6821 42.0833C19.3301 42.0005 19.9502 41.7687 20.4936 41.406C20.2216 42.0469 20.1508 42.7554 20.2906 43.4374C20.4305 44.1195 20.7744 44.7429 21.2767 45.225C21.9854 45.537 22.7614 45.6652 23.5329 45.5979C24.3043 45.5305 25.0463 45.2698 25.6903 44.8398L27.8511 42.8842C29.8276 44.8523 32.5536 46.0709 35.5644 46.0709L35.8199 46.0667C36.8122 45.9824 37.7629 45.6296 38.57 45.0461C39.377 44.4626 40.01 43.6703 40.401 42.7544C41.0124 42.9889 41.7075 43.148 42.4445 43.148C43.4327 43.148 44.3498 42.8633 45.1245 42.3733C47.5742 40.7528 46.9879 39.4965 46.9879 39.4965C47.859 39.8715 48.8266 39.9604 49.7514 39.7504C50.6762 39.5405 51.5106 39.0425 52.1344 38.3282C52.7826 37.6651 53.1913 36.8048 53.296 35.8834C53.4007 34.962 53.1953 34.032 52.7122 33.2404C52.7391 33.2553 52.7695 33.2625 52.8002 33.2613C54.5631 33.2613 56.0957 32.2898 56.8956 30.8577C57.2907 29.8401 57.4245 28.7397 57.2848 27.6571C57.1451 26.5745 56.7363 25.5441 56.0957 24.6602L56.1083 24.6811C59.5421 24.0111 59.4164 22.2943 61.0914 19.7818C62.6754 17.7295 64.6492 16.0104 66.8995 14.7233L54.4375 0ZM54.2281 29.5638C52.3856 31.4063 50.9619 30.6106 47.8213 28.2238C44.6806 25.8369 38.4412 21.3563 38.4412 21.3563C38.6967 22.6334 39.2871 23.7431 40.1204 24.6267C41.4563 26.13 45.4344 29.5638 47.3188 31.3225C48.4912 32.4113 51.5063 34.5888 49.7475 36.2638C47.9888 37.9388 46.6069 36.2638 43.7175 33.9188C40.8281 31.5738 34.3794 25.795 34.3794 25.795C34.3447 26.3489 34.4274 26.9038 34.6223 27.4234C34.8171 27.943 35.1197 28.4155 35.51 28.81C36.2219 29.6475 40.2 33.5 41.875 35.2588C43.55 37.0175 45.0156 38.0644 43.5919 39.4463C42.1681 40.8281 39.2788 38.6506 37.6875 37.0175C35.2169 34.6306 30.3175 30.1919 30.3175 30.1919L30.3133 30.4138C30.3133 31.6031 30.7237 32.6918 31.4146 33.5544C32.6206 35.1373 34.9656 37.1892 36.3894 38.7804C37.8131 40.3717 38.6506 41.7117 36.3894 42.9679C34.1281 44.2242 30.7781 41.1254 29.3125 39.6179V39.6096C29.3171 39.1952 29.1679 38.7939 28.8938 38.4831C28.3919 38.0207 27.7739 37.7033 27.1057 37.5646C26.4376 37.426 25.7443 37.4713 25.0999 37.6959C25.3643 37.4582 25.5763 37.168 25.7221 36.8438C25.868 36.5195 25.9445 36.1684 25.9469 35.8129C25.9493 35.4573 25.8774 35.1052 25.7359 34.7791C25.5943 34.4529 25.3863 34.1599 25.125 33.9188C24.5753 33.5023 23.9044 33.2772 23.2148 33.278C22.5252 33.2788 21.8548 33.5053 21.306 33.9229C21.5835 33.6579 21.7977 33.3337 21.9327 32.9746C22.0677 32.6154 22.12 32.2304 22.0858 31.8482C22.0517 31.466 21.9318 31.0964 21.7352 30.7669C21.5385 30.4374 21.2702 30.1564 20.9501 29.9448C20.2004 29.4738 19.3208 29.2525 18.4375 29.3127C17.5542 29.3729 16.7127 29.7115 16.0339 30.2798C16.4876 29.73 16.7113 29.0261 16.6582 28.3152C16.6052 27.6043 16.2795 26.9414 15.7492 26.465C15.0888 25.854 14.2492 25.4719 13.3547 25.3754C12.4602 25.2789 11.5584 25.473 10.7828 25.929L7.99813 21.2264C6.07187 18.1696 3.81063 14.9871 3.81063 14.9871L13.3581 3.38769C13.3581 3.38769 16.75 5.48144 19.5556 7.07269C20.9375 7.86831 23.3244 8.91519 25.125 9.75269C22.2775 11.8883 19.8906 13.9402 20.6025 15.3639C21.8702 16.2769 23.3866 16.7805 24.9486 16.8075C26.5105 16.8344 28.0434 16.3833 29.3418 15.5147C31.0066 14.4049 32.9648 13.8173 34.9656 13.8271C36.4187 13.8271 37.8006 14.1286 39.0526 14.6772C41.3725 16.2433 45.6437 20.0958 49.5381 22.5246C54.4375 26.0839 55.4006 28.3871 54.2281 29.5596V29.5638Z" fill="#0067B0"/>
</svg>
