<svg width="32" height="32" viewBox="0 0 32 32" fill="none" xmlns="http://www.w3.org/2000/svg">
<path d="M12.6501 9.91198L13.5409 13.1344C14.3798 16.17 14.7984 17.6887 16.0317 18.3788C17.2649 19.0707 18.8303 18.6625 21.9611 17.8496L25.2821 16.9847C28.4128 16.1717 29.9782 15.7653 30.6908 14.5701C31.4035 13.3731 30.9849 11.8544 30.1442 8.81882L29.2552 5.59813C28.4163 2.56079 27.996 1.04212 26.7644 0.351969C25.5294 -0.339909 23.964 0.0682989 20.8333 0.882985L17.5123 1.74437C14.3815 2.55733 12.8162 2.96554 12.1053 4.16248C11.3926 5.3577 11.8112 6.87637 12.6501 9.91198Z" fill="#0067B0"/>
<path d="M0.0470268 3.88604C0.0925984 3.72177 0.170103 3.56808 0.27511 3.43378C0.380117 3.29947 0.510567 3.18718 0.659 3.10333C0.807434 3.01947 0.97094 2.96569 1.14017 2.94507C1.3094 2.92445 1.48104 2.93739 1.64526 2.98314L4.59093 3.79956C5.37138 4.01204 6.08357 4.42287 6.65824 4.99208C7.23291 5.5613 7.65051 6.26953 7.87043 7.04792L11.591 20.5153L11.8643 21.4615C12.9674 21.868 13.897 22.6419 14.4969 23.653L15.0331 23.4869L30.3755 19.5C30.5404 19.4571 30.7121 19.447 30.8809 19.4705C31.0497 19.4939 31.2122 19.5504 31.3592 19.6366C31.5061 19.7229 31.6347 19.8372 31.7375 19.9732C31.8402 20.1091 31.9152 20.2639 31.9581 20.4288C32.0011 20.5937 32.0111 20.7655 31.9877 20.9343C31.9642 21.1031 31.9078 21.2656 31.8215 21.4125C31.7353 21.5595 31.6209 21.688 31.485 21.7908C31.349 21.8936 31.1942 21.9686 31.0293 22.0115L15.744 25.9829L15.1732 26.1593C15.1628 28.356 13.6459 30.3659 11.3506 30.9609C8.60036 31.677 5.77231 30.0926 5.03546 27.4254C4.29861 24.7583 5.93144 22.0132 8.68166 21.2989C8.81888 21.2643 8.95553 21.2343 9.09159 21.2089L5.36929 7.73807C5.26863 7.39222 5.08042 7.0782 4.82285 6.82639C4.56529 6.57458 4.24709 6.39351 3.89905 6.3007L0.951656 5.48255C0.787411 5.43715 0.633719 5.35984 0.49936 5.25503C0.365 5.15022 0.252607 5.01996 0.168599 4.87171C0.0845918 4.72345 0.0306162 4.56009 0.00975649 4.39097C-0.0111032 4.22185 0.0015614 4.05027 0.0470268 3.88604Z" fill="#0067B0"/>
</svg>
