<svg width="37" height="37" viewBox="0 0 37 37" fill="none" xmlns="http://www.w3.org/2000/svg">
<path d="M27.575 30.05H35M35 30.05L30.875 25.925M35 30.05L30.875 34.175M18.5 2L14.375 6.125L18.5 10.25" stroke="#0067B0" stroke-width="4" stroke-linecap="round" stroke-linejoin="round"/>
<path d="M16.025 6.125C19.3071 6.125 22.4547 7.42879 24.7754 9.74955C27.0962 12.0703 28.4 15.2179 28.4 18.5C28.4 21.7821 27.0962 24.9297 24.7754 27.2504C22.4547 29.5712 19.3071 30.875 16.025 30.875H2" stroke="#0067B0" stroke-width="4" stroke-linecap="round" stroke-linejoin="round"/>
<path d="M9.84779 7.7749C7.96354 8.86045 6.39862 10.4234 5.31063 12.3062C4.22264 14.189 3.65 16.3253 3.65039 18.4999C3.65039 21.2851 4.57109 23.8558 6.12539 25.9249" stroke="#0067B0" stroke-width="4" stroke-linecap="round" stroke-linejoin="round"/>
</svg>
