<svg width="72" height="72" viewBox="0 0 72 72" fill="none" xmlns="http://www.w3.org/2000/svg">
<path d="M14.8201 48.18C12.9653 48.1708 11.135 48.6027 9.48005 49.44L0.420054 54C0.293881 54.0578 0.187111 54.1509 0.112597 54.268C0.0380822 54.3851 -0.00100033 54.5212 5.36729e-05 54.66V70.86C-0.00158294 70.9912 0.0342391 71.1202 0.103317 71.2318C0.172395 71.3434 0.271864 71.433 0.390054 71.49C0.501755 71.5623 0.631985 71.6008 0.765054 71.6008C0.898122 71.6008 1.02835 71.5623 1.14005 71.49L11.4001 65.04C11.5847 64.9204 11.7942 64.8447 12.0126 64.8187C12.2311 64.7927 12.4525 64.8171 12.6601 64.89C43.4401 75.21 33.0001 75.39 66.9901 58.2C67.2211 58.0832 67.4187 57.9096 67.5644 57.6956C67.7101 57.4816 67.7991 57.2341 67.8231 56.9763C67.8471 56.7185 67.8052 56.4589 67.7015 56.2217C67.5978 55.9845 67.4356 55.7774 67.23 55.62C66.2585 54.7646 65.0782 54.1809 63.8086 53.928C62.5391 53.6752 61.2252 53.7621 60.0001 54.18L49.7401 57.57C49.5513 57.6286 49.3767 57.7255 49.227 57.8545C49.0774 57.9835 48.9558 58.142 48.8701 58.32C48.3775 59.3252 47.6136 60.1727 46.6646 60.7664C45.7156 61.3602 44.6195 61.6766 43.5001 61.68H31.5001C31.1022 61.68 30.7207 61.522 30.4394 61.2407C30.1581 60.9594 30.0001 60.5778 30.0001 60.18C30.0001 59.7822 30.1581 59.4006 30.4394 59.1193C30.7207 58.838 31.1022 58.68 31.5001 58.68H43.5001C44.2957 58.68 45.0588 58.3639 45.6214 57.8013C46.184 57.2387 46.5001 56.4756 46.5001 55.68C46.5001 54.8843 46.184 54.1213 45.6214 53.5587C45.0588 52.9961 44.2957 52.68 43.5001 52.68H33.5101C33.1868 52.672 32.8734 52.5676 32.6101 52.38C29.2574 49.8316 25.2072 48.3664 21.0001 48.18H14.8201ZM52.5001 0C48.6433 0 44.8732 1.14366 41.6664 3.28634C38.4597 5.42903 35.9603 8.47451 34.4844 12.0377C33.0085 15.6008 32.6223 19.5216 33.3747 23.3043C34.1272 27.0869 35.9843 30.5615 38.7115 33.2886C41.4386 36.0157 44.9132 37.8729 48.6958 38.6253C52.4784 39.3777 56.3992 38.9916 59.9624 37.5156C63.5255 36.0397 66.571 33.5404 68.7137 30.3336C70.8564 27.1269 72.0001 23.3567 72.0001 19.5C71.9921 14.3307 69.9351 9.37542 66.2799 5.72018C62.6246 2.06494 57.6693 0.00793445 52.5001 0ZM54.7501 30.72V32.25C54.7501 32.8467 54.513 33.419 54.091 33.841C53.6691 34.2629 53.0968 34.5 52.5001 34.5C51.9033 34.5 51.331 34.2629 50.9091 33.841C50.4871 33.419 50.2501 32.8467 50.2501 32.25V30.75H48.0001C47.4033 30.75 46.831 30.5129 46.4091 30.091C45.9871 29.669 45.7501 29.0967 45.7501 28.5C45.7501 27.9033 45.9871 27.331 46.4091 26.909C46.831 26.4871 47.4033 26.25 48.0001 26.25H54.0001C54.4146 26.2546 54.8177 26.1135 55.1389 25.8514C55.4601 25.5892 55.6791 25.2226 55.7576 24.8155C55.8362 24.4084 55.7694 23.9866 55.5688 23.6238C55.3682 23.2609 55.0466 22.98 54.66 22.83L48.48 20.34C47.2072 19.8025 46.1476 18.8596 45.4657 17.6579C44.7839 16.4562 44.5182 15.0629 44.7097 13.6946C44.9013 12.3262 45.5395 11.0595 46.5251 10.0912C47.5107 9.1229 48.7885 8.50728 50.16 8.34V6.75C50.16 6.15326 50.3971 5.58097 50.8191 5.15901C51.241 4.73705 51.8133 4.5 52.41 4.5C53.0068 4.5 53.5791 4.73705 54.001 5.15901C54.423 5.58097 54.66 6.15326 54.66 6.75V8.25H57.0001C57.5968 8.25 58.1691 8.48705 58.591 8.90901C59.013 9.33097 59.2501 9.90326 59.2501 10.5C59.2501 11.0967 59.013 11.669 58.591 12.091C58.1691 12.5129 57.5968 12.75 57.0001 12.75H51.0001C50.5306 12.75 50.0804 12.9365 49.7485 13.2684C49.4165 13.6004 49.23 14.0506 49.23 14.52C49.2243 14.8755 49.3277 15.2242 49.5261 15.5192C49.7246 15.8142 50.0086 16.0413 50.3401 16.17L56.5201 18.66C57.7929 19.1975 58.8526 20.1404 59.5344 21.3421C60.2162 22.5438 60.4819 23.9371 60.2904 25.3054C60.0988 26.6738 59.4606 27.9405 58.475 28.9088C57.4894 29.8771 56.2116 30.4927 54.8401 30.66L54.7501 30.72Z" fill="#0067B0"/>
</svg>
