<svg width="25" height="36" viewBox="0 0 25 36" fill="none" xmlns="http://www.w3.org/2000/svg">
<path d="M12.5 0C9.18479 0 6.00537 1.3275 3.66117 3.69045C1.31696 6.05341 0 9.25827 0 12.6C0 16.884 2.125 20.646 5.35714 22.932V27C5.35714 27.4774 5.54528 27.9352 5.88017 28.2728C6.21505 28.6104 6.66926 28.8 7.14286 28.8H17.8571C18.3307 28.8 18.7849 28.6104 19.1198 28.2728C19.4547 27.9352 19.6429 27.4774 19.6429 27V22.932C22.875 20.646 25 16.884 25 12.6C25 9.25827 23.683 6.05341 21.3388 3.69045C18.9946 1.3275 15.8152 0 12.5 0ZM7.14286 34.2C7.14286 34.6774 7.33099 35.1352 7.66588 35.4728C8.00077 35.8104 8.45497 36 8.92857 36H16.0714C16.545 36 16.9992 35.8104 17.3341 35.4728C17.669 35.1352 17.8571 34.6774 17.8571 34.2V32.4H7.14286V34.2Z" fill="#0067B0"/>
</svg>
