<svg width="35" height="39" viewBox="0 0 35 39" fill="none" xmlns="http://www.w3.org/2000/svg">
<path d="M19.7022 0C11.4632 0 4.81956 6.39167 4.40434 14.43L0.208361 19.9117C-0.316136 20.5833 0.208362 21.6667 1.12623 21.6667H4.40434V28.1667C4.40434 30.5717 6.34935 32.5 8.77515 32.5H10.9606V39H26.2584V28.8383C31.4378 26.4117 35 21.2333 35 15.1667C35 6.80333 28.1815 0 19.7022 0ZM21.8876 23.8333H17.5168V21.6667H21.8876V23.8333ZM25.3842 14.0833C24.8022 15.0576 23.9735 15.8642 22.9803 16.4233V19.5H16.4241V16.4233C13.2989 14.625 12.2062 10.66 14.0201 7.58333C15.834 4.50667 19.8551 3.38 22.9803 5.15667C26.1054 6.93333 27.1981 10.9417 25.3842 14.0833Z" fill="#0067B0"/>
</svg>
