<svg width="36" height="35" viewBox="0 0 36 35" fill="none" xmlns="http://www.w3.org/2000/svg">
<path d="M14.3211 0.225923C12.3908 -0.154586 10.3968 -0.0532661 8.51463 0.520967C6.63249 1.0952 4.9199 2.12474 3.52758 3.51898C2.04202 5.00268 0.971846 6.85246 0.42458 8.88247C-0.122687 10.9125 -0.127771 13.0512 0.409839 15.0838C0.948073 14.6178 1.59559 14.2967 2.29153 14.1506C2.98748 14.0046 3.70901 14.0385 4.38831 14.2492C5.0676 14.4598 5.68237 14.8402 6.17483 15.3547C6.66729 15.8691 7.02127 16.5008 7.20352 17.1902C7.77142 17.1079 8.35015 17.1435 8.90373 17.295C9.45731 17.4465 9.97392 17.7106 10.4215 18.0709C10.869 18.4311 11.2379 18.8799 11.5053 19.3892C11.7726 19.8986 11.9327 20.4576 11.9756 21.0316C12.9768 21.1011 13.9194 21.5309 14.6298 22.2421C15.3403 22.9532 15.7709 23.8978 15.8424 24.9021C16.641 24.9584 17.4066 25.2439 18.0479 25.7246C18.6892 26.2053 19.1791 26.861 19.4593 27.6133C19.7395 28.3656 19.798 29.1829 19.628 29.9677C19.4579 30.7525 19.0665 31.4716 18.5003 32.0394L17.8206 32.7183L19.8191 34.6129C20.0859 34.8664 20.4409 35.0053 20.8083 34.9998C21.1758 34.9944 21.5265 34.8452 21.7858 34.5839C22.0261 34.3424 22.1717 34.0222 22.1962 33.6818C22.2206 33.3414 22.1221 33.0035 21.9188 32.73L21.8089 32.6197L21.673 32.463L21.3809 32.1671C21.2458 32.0323 21.1386 31.872 21.0654 31.6955C20.9922 31.519 20.9546 31.3297 20.9546 31.1386C20.9546 30.9474 20.9922 30.7581 21.0654 30.5816C21.1386 30.4051 21.2458 30.2448 21.3809 30.11C21.6518 29.8398 22.0183 29.6882 22.4004 29.6882C22.7824 29.6882 23.1489 29.8398 23.4198 30.11L23.8247 30.5162C23.9115 30.6033 23.9925 30.6922 24.0677 30.7831L24.2846 31.0036C24.4111 31.1326 24.5619 31.235 24.7282 31.3049C24.8946 31.3748 25.0731 31.4108 25.2535 31.4108C25.4338 31.4108 25.6124 31.3748 25.7787 31.3049C25.945 31.235 26.0958 31.1326 26.2223 31.0036C26.4797 30.7443 26.6241 30.3933 26.6241 30.0273C26.6241 29.6614 26.4797 29.3104 26.2223 29.051L25.7885 28.6158C25.6497 28.4764 25.5407 28.3101 25.4681 28.127C25.3955 27.9439 25.3609 27.748 25.3663 27.551C25.3658 27.2644 25.4499 26.9841 25.608 26.7454C25.7661 26.5067 25.9912 26.3204 26.2548 26.2099C26.5184 26.0994 26.8088 26.0697 27.0892 26.1245C27.3696 26.1794 27.6275 26.3164 27.8304 26.5181L28.1572 26.8489C28.298 26.9909 28.4654 27.1036 28.6498 27.1805C28.8342 27.2574 29.0319 27.297 29.2316 27.297C29.4313 27.297 29.629 27.2574 29.8134 27.1805C29.9978 27.1036 30.1652 26.9909 30.3061 26.8489C30.5895 26.5611 30.7485 26.1727 30.7485 25.7681C30.7485 25.3635 30.5895 24.9752 30.3061 24.6874L30.2338 24.6119L29.9706 24.3653L27.7292 22.108C27.5945 21.9733 27.4876 21.8132 27.4147 21.637C27.3418 21.4607 27.3043 21.2718 27.3043 21.081C27.3043 20.8901 27.3418 20.7012 27.4147 20.525C27.4876 20.3487 27.5945 20.1886 27.7292 20.0539C28.0002 19.7828 28.3674 19.6306 28.7501 19.6306C29.1328 19.6306 29.5 19.7828 29.771 20.0539L31.8765 22.1719L32.0182 22.2995L32.1918 22.4736C32.6398 22.8398 33.2076 23.0259 33.7847 22.9959C34.3619 22.9659 34.9074 22.7218 35.3153 22.3111C35.7538 21.8691 36 21.2708 36 20.6472C36 20.0236 35.7538 19.4253 35.3153 18.9833L33.1809 16.8334L33.097 16.755L24.4437 7.92906H22.2283L17.2769 11.7066C14.8822 13.5345 11.4637 13.0703 9.63871 10.6679C9.20379 10.0975 8.88542 9.44661 8.70188 8.75247C8.51834 8.05834 8.47324 7.33468 8.56917 6.62302C8.6651 5.91136 8.90017 5.2257 9.2609 4.6054C9.62162 3.9851 10.1009 3.44236 10.6712 3.00834L14.3211 0.225923ZM25.051 5.02769C25.2428 5.0281 25.4326 5.06679 25.6094 5.14151C25.7862 5.21622 25.9464 5.32547 26.0806 5.46289L33.8779 13.4126C34.4334 12.3106 34.7608 11.1071 34.8402 9.87471C34.9197 8.64233 34.7496 7.40657 34.3401 6.24191C33.9307 5.07725 33.2905 4.00781 32.458 3.09805C31.6255 2.18828 30.618 1.45703 29.4963 0.948364L29.395 0.896139C28.4543 0.376284 27.3976 0.103795 26.3236 0.104066H19.2378L19.0961 0.225923L12.4239 5.31782C12.1558 5.52084 11.9304 5.77509 11.7607 6.06591C11.5911 6.35673 11.4805 6.67836 11.4353 7.01227C11.3901 7.34617 11.4113 7.68574 11.4976 8.0114C11.5838 8.33706 11.7335 8.64237 11.938 8.90972C12.3497 9.45151 12.959 9.80718 13.632 9.89858C14.305 9.98997 14.9866 9.80962 15.5271 9.39715L20.8661 5.32363C21.1172 5.13203 21.424 5.0281 21.7395 5.02769H25.051ZM12.5829 26.1177L10.6828 28.0181C10.441 28.2602 10.1133 28.3961 9.77175 28.3961C9.43017 28.3961 9.10254 28.2602 8.86072 28.0181C8.62489 27.783 8.48942 27.4651 8.48294 27.1316C8.47647 26.798 8.59949 26.4751 8.82602 26.2309L8.86362 26.1932L10.7609 24.2928L10.7956 24.2609C11.0402 24.0342 11.3627 23.911 11.6956 23.917C12.0286 23.9229 12.3465 24.0575 12.5829 24.2928C12.703 24.4123 12.7983 24.5544 12.8633 24.711C12.9283 24.8676 12.9618 25.0356 12.9618 25.2053C12.9618 25.3749 12.9283 25.5429 12.8633 25.6995C12.7983 25.8561 12.703 25.9983 12.5829 26.1177ZM12.7304 31.8886C12.9722 32.1306 13.2999 32.2665 13.6415 32.2665C13.983 32.2665 14.3107 32.1306 14.5525 31.8886L16.4526 29.9882C16.588 29.8532 16.6916 29.6895 16.7558 29.5092C16.82 29.3289 16.8433 29.1365 16.8239 28.946C16.8045 28.7555 16.7429 28.5718 16.6437 28.4082C16.5444 28.2447 16.41 28.1055 16.2502 28.0007C16.0024 27.8373 15.7061 27.7646 15.4111 27.7947C15.1161 27.8248 14.8405 27.956 14.6306 28.1661L12.7304 30.0665C12.6108 30.1859 12.5159 30.3279 12.4511 30.4842C12.3863 30.6406 12.353 30.8082 12.353 30.9775C12.353 31.1468 12.3863 31.3145 12.4511 31.4708C12.5159 31.6272 12.6108 31.7691 12.7304 31.8886ZM4.09734 19.1312L2.20008 21.0316C1.95827 21.2737 1.63063 21.4096 1.28905 21.4096C0.947475 21.4096 0.619841 21.2737 0.378025 21.0316C0.142189 20.7965 0.00671959 20.4786 0.000243316 20.1451C-0.00623296 19.8116 0.116791 19.4886 0.343319 19.2444L0.380917 19.2067L2.27817 17.3063L2.31288 17.2744C2.55743 17.0483 2.87958 16.9257 3.21208 16.9322C3.54458 16.9387 3.86173 17.0737 4.09734 17.3092C4.21697 17.4286 4.31189 17.5706 4.37666 17.7269C4.44144 17.8833 4.47478 18.0509 4.47478 18.2202C4.47478 18.3895 4.44144 18.5572 4.37666 18.7135C4.31189 18.8698 4.21697 19.0118 4.09734 19.1312ZM8.36906 22.3605L6.4718 24.258C6.22999 24.5 5.90235 24.6359 5.56077 24.6359C5.21919 24.6359 4.89156 24.5 4.64974 24.258C4.41476 24.0229 4.27983 23.7056 4.27336 23.3728C4.26688 23.04 4.38937 22.7177 4.61504 22.4736L4.65263 22.4359L6.54989 20.5355L6.58459 20.5007C6.82915 20.2746 7.1513 20.152 7.4838 20.1585C7.8163 20.165 8.13345 20.3001 8.36906 20.5355C8.48912 20.655 8.58441 20.7971 8.64944 20.9537C8.71447 21.1104 8.74795 21.2783 8.74795 21.448C8.74795 21.6176 8.71447 21.7856 8.64944 21.9422C8.58441 22.0988 8.48912 22.241 8.36906 22.3605Z" fill="#0067B0"/>
</svg>
