<svg width="34" height="34" viewBox="0 0 34 34" fill="none" xmlns="http://www.w3.org/2000/svg">
<path d="M17 13.6C18.8035 13.6 20.5331 12.8836 21.8083 11.6083C23.0836 10.3331 23.8 8.60347 23.8 6.8C23.8 4.99653 23.0836 3.26692 21.8083 1.99167C20.5331 0.716427 18.8035 0 17 0C15.1965 0 13.4669 0.716427 12.1917 1.99167C10.9164 3.26692 10.2 4.99653 10.2 6.8C10.2 8.60347 10.9164 10.3331 12.1917 11.6083C13.4669 12.8836 15.1965 13.6 17 13.6ZM5.95 18.7C7.07717 18.7 8.15817 18.2522 8.9552 17.4552C9.75223 16.6582 10.2 15.5772 10.2 14.45C10.2 13.3228 9.75223 12.2418 8.9552 11.4448C8.15817 10.6478 7.07717 10.2 5.95 10.2C4.82283 10.2 3.74183 10.6478 2.9448 11.4448C2.14777 12.2418 1.7 13.3228 1.7 14.45C1.7 15.5772 2.14777 16.6582 2.9448 17.4552C3.74183 18.2522 4.82283 18.7 5.95 18.7ZM32.3 14.45C32.3 15.5772 31.8522 16.6582 31.0552 17.4552C30.2582 18.2522 29.1772 18.7 28.05 18.7C26.9228 18.7 25.8418 18.2522 25.0448 17.4552C24.2478 16.6582 23.8 15.5772 23.8 14.45C23.8 13.3228 24.2478 12.2418 25.0448 11.4448C25.8418 10.6478 26.9228 10.2 28.05 10.2C29.1772 10.2 30.2582 10.6478 31.0552 11.4448C31.8522 12.2418 32.3 13.3228 32.3 14.45ZM17 15.3C19.2543 15.3 21.4163 16.1955 23.0104 17.7896C24.6045 19.3837 25.5 21.5457 25.5 23.8V34H8.5V23.8C8.5 21.5457 9.39553 19.3837 10.9896 17.7896C12.5837 16.1955 14.7457 15.3 17 15.3ZM5.1 23.8C5.1 22.6219 5.27 21.4846 5.5896 20.4102L5.3006 20.434C3.84349 20.594 2.49673 21.2862 1.51855 22.378C0.540365 23.4697 -0.00038039 24.8841 2.00766e-07 26.35V34H5.1V23.8ZM34 34V26.35C34.0002 24.8342 33.4219 23.3755 32.3831 22.2717C31.3443 21.1678 29.9234 20.502 28.4104 20.4102C28.7283 21.4846 28.9 22.6219 28.9 23.8V34H34Z" fill="#0067B0"/>
</svg>
